<?xml version="1.0" standalone="no"?><!DOCTYPE svg PUBLIC "-//W3C//DTD SVG 1.1//EN" "http://www.w3.org/Graphics/SVG/1.1/DTD/svg11.dtd"><svg t="1625154464254" class="icon" viewBox="0 0 1150 1024" version="1.1" xmlns="http://www.w3.org/2000/svg" p-id="2401" xmlns:xlink="http://www.w3.org/1999/xlink" width="224.609375" height="200"><defs><style type="text/css"></style></defs><path d="M1150 605.03c0-64.57-80.14-119.15-225.77-154.49C910.9 267.8 758.33 123.09 572.25 123.09c-186.51 0-339.34 145.38-352.06 328.71C77.92 487.14 0 541.11 0 605.03c0 38.49 28.34 71.49 75.65 98.74-2.51 9.57-3.9 19.42-3.9 29.53C71.74 797.65 124.11 850 188.46 850c49.54 0 92.73-30.93 109.41-75.97 49.33 8.61 101.99 14.8 155.71 18.54 4.19 60.57 54.68 108.59 116.29 108.59 61.38 0 111.73-47.66 116.25-107.9 51.66-3.28 102.46-8.84 150.44-16.62 16.19 45.67 60.2 78 110.06 78 64.35 0 116.72-52.36 116.72-116.71 0-9.05-1.05-17.91-3.06-26.54 55.7-28.63 89.72-64.2 89.72-106.36zM572.26 172.77c167.4 0 303.6 136.2 303.6 303.61 0 9.83-0.6 19.96-1.88 31.09-84.35 24.32-180.73 37.13-279.83 37.13-117.07 0-231.77-18.3-325.05-51.69-0.31-5.6-0.47-11.12-0.47-16.54 0.01-167.4 136.21-303.6 303.63-303.6z m-383.8 627.55c-36.97 0-67.03-30.06-67.03-67.03 0-2.37 0.55-4.63 0.79-6.96 36.21 14.95 78.77 27.62 125.53 37.89-11.29 21.66-33.72 36.1-59.29 36.1z m381.4 51.16c-33.23 0-60.68-24.37-65.92-56.14 23.68 0.96 47.42 1.48 71.05 1.48 20.2 0 40.49-0.4 60.75-1.1-5.39 31.59-32.78 55.76-65.88 55.76z m443.79-113.53c0 36.96-30.06 67.03-67.03 67.03-25.87 0-48.82-15.25-59.9-37.5 46.53-9.52 89.3-21.32 126.29-35.32 0.17 1.93 0.64 3.81 0.64 5.79z m-438.66 9.2c-325.47 0-525.31-82.78-525.31-142.12 0-29.49 53.22-70.79 170.43-101.82 0.25 3.35 0.44 6.68 0.79 10.04l1.57 15.16 14.23 5.47c102.79 39.53 226.4 60.41 357.46 60.41 110 0 217.08-15.18 309.67-43.88l14.83-4.6 2.36-15.36c1.57-10.23 2.71-19.69 3.45-28.73 121.21 31.22 175.85 73.58 175.85 103.31 0 59.34-199.86 142.12-525.33 142.12z" fill="#666666" p-id="2402"></path></svg>
